<svg width="24" height="24" viewBox="0 0 24 24" fill="none" xmlns="http://www.w3.org/2000/svg">
<path d="M14.5301 9.47008L9.47008 14.5301C8.79908 13.8591 8.42212 12.949 8.42212 12.0001C8.42212 11.5302 8.51467 11.065 8.69448 10.6309C8.87428 10.1968 9.13784 9.80232 9.47008 9.47008C9.80232 9.13784 10.1968 8.87428 10.6309 8.69448C11.065 8.51467 11.5302 8.42212 12.0001 8.42212C12.949 8.42212 13.8591 8.79908 14.5301 9.47008V9.47008Z" stroke="#BDC1DF" stroke-width="1.5" stroke-linecap="round" stroke-linejoin="round"/>
<path d="M17.8201 5.76998C16.0701 4.44998 14.0701 3.72998 12.0001 3.72998C8.47009 3.72998 5.18009 5.80998 2.89009 9.40998C1.99009 10.82 1.99009 13.19 2.89009 14.6C3.68009 15.84 4.60009 16.91 5.60009 17.77M8.42009 19.53C9.56009 20.01 10.7701 20.27 12.0001 20.27C15.5301 20.27 18.8201 18.19 21.1101 14.59C22.0101 13.18 22.0101 10.81 21.1101 9.39998C20.7801 8.87998 20.4201 8.38998 20.0501 7.92998" stroke="#BDC1DF" stroke-width="1.5" stroke-linecap="round" stroke-linejoin="round"/>
<path d="M15.51 12.7C15.3745 13.3976 15.0337 14.0387 14.5312 14.5412C14.0287 15.0437 13.3876 15.3845 12.69 15.52M9.47 14.53L2 22M22 2L14.53 9.47" stroke="#BDC1DF" stroke-width="1.5" stroke-linecap="round" stroke-linejoin="round"/>
</svg>
