<svg width="13" height="12" viewBox="0 0 13 12" fill="none" xmlns="http://www.w3.org/2000/svg">
<path fill-rule="evenodd" clip-rule="evenodd" d="M6.5 4.125C6.00272 4.125 5.52581 4.32254 5.17417 4.67417C4.82254 5.02581 4.625 5.50272 4.625 6C4.625 6.49728 4.82254 6.97419 5.17417 7.32583C5.52581 7.67746 6.00272 7.875 6.5 7.875C6.99728 7.875 7.47419 7.67746 7.82583 7.32583C8.17746 6.97419 8.375 6.49728 8.375 6C8.375 5.50272 8.17746 5.02581 7.82583 4.67417C7.47419 4.32254 6.99728 4.125 6.5 4.125ZM5.375 6C5.375 5.70163 5.49353 5.41548 5.7045 5.2045C5.91548 4.99353 6.20163 4.875 6.5 4.875C6.79837 4.875 7.08452 4.99353 7.2955 5.2045C7.50647 5.41548 7.625 5.70163 7.625 6C7.625 6.29837 7.50647 6.58452 7.2955 6.7955C7.08452 7.00647 6.79837 7.125 6.5 7.125C6.20163 7.125 5.91548 7.00647 5.7045 6.7955C5.49353 6.58452 5.375 6.29837 5.375 6Z" fill="#BDC1DF"/>
<path fill-rule="evenodd" clip-rule="evenodd" d="M6.5 1.625C4.243 1.625 2.7225 2.977 1.84 4.1235L1.8245 4.144C1.6245 4.4035 1.441 4.642 1.3165 4.924C1.183 5.2265 1.125 5.556 1.125 6C1.125 6.444 1.183 6.7735 1.3165 7.076C1.4415 7.358 1.625 7.597 1.8245 7.856L1.8405 7.8765C2.7225 9.023 4.243 10.375 6.5 10.375C8.757 10.375 10.2775 9.023 11.16 7.8765L11.1755 7.856C11.3755 7.597 11.559 7.358 11.6835 7.076C11.817 6.7735 11.875 6.444 11.875 6C11.875 5.556 11.817 5.2265 11.6835 4.924C11.5585 4.642 11.375 4.4035 11.1755 4.144L11.1595 4.1235C10.2775 2.977 8.757 1.625 6.5 1.625ZM2.435 4.581C3.249 3.5225 4.575 2.375 6.5 2.375C8.425 2.375 9.7505 3.5225 10.565 4.581C10.785 4.866 10.913 5.036 10.9975 5.227C11.0765 5.406 11.125 5.6245 11.125 6C11.125 6.3755 11.0765 6.594 10.9975 6.773C10.913 6.964 10.7845 7.134 10.5655 7.419C9.75 8.4775 8.425 9.625 6.5 9.625C4.575 9.625 3.2495 8.4775 2.435 7.419C2.215 7.134 2.087 6.964 2.0025 6.773C1.9235 6.594 1.875 6.3755 1.875 6C1.875 5.6245 1.9235 5.406 2.0025 5.227C2.087 5.036 2.216 4.866 2.435 4.581Z" fill="#BDC1DF"/>
</svg>
